HIERARCHY
ROOT Hips
{
	OFFSET 0.000000 0.000000 0.000000
	CHANNELS 6 Xposition Yposition Zposition Zrotation Yrotation Xrotation 
	JOINT LeftUpLeg_virtual
	{
		OFFSET 0.000000 0.000000 0.000000
		CHANNELS 3 Zrotation Yrotation Xrotation
		JOINT LeftUpLeg
		{
			OFFSET 8.479694 -4.795517 -0.379053
			CHANNELS 3 Zrotation Yrotation Xrotation
			JOINT LeftLeg
			{
				OFFSET 0.485052 -32.551468 0.112863
				CHANNELS 3 Zrotation Yrotation Xrotation
				JOINT LeftFoot
				{
					OFFSET 0.438033 -32.635670 -3.012641
					CHANNELS 3 Zrotation Yrotation Xrotation
					JOINT LeftToeBase
					{
						OFFSET 0.970169 -13.225353 11.864223
						CHANNELS 3 Zrotation Yrotation Xrotation
						End Site
						{
							OFFSET 0.000000 0.000000 0.000000
						}
					}
				}
			}
		}
	}
	JOINT RightUpLeg_virtual
	{
		OFFSET 0.000000 0.000000 0.000000
		CHANNELS 3 Zrotation Yrotation Xrotation
		JOINT RightUpLeg
		{
			OFFSET -8.479694 -4.795517 -0.379053
			CHANNELS 3 Zrotation Yrotation Xrotation
			JOINT RightLeg
			{
				OFFSET -0.484100 -32.551483 0.112903
				CHANNELS 3 Zrotation Yrotation Xrotation
				JOINT RightFoot
				{
					OFFSET -0.438985 -32.635651 -3.012681
					CHANNELS 3 Zrotation Yrotation Xrotation
					JOINT RightToeBase
					{
						OFFSET -0.970169 -13.225354 11.864223
						CHANNELS 3 Zrotation Yrotation Xrotation
						End Site
						{
							OFFSET 0.000000 0.000000 0.000000
						}
					}
				}
			}
		}
	}
	JOINT Spine_virtual
	{
		OFFSET 0.000000 0.000000 0.000000
		CHANNELS 3 Zrotation Yrotation Xrotation
		JOINT Spine
		{
			OFFSET 0.000000 7.722015 1.166203
			CHANNELS 3 Zrotation Yrotation Xrotation
			JOINT Spine1
			{
				OFFSET 0.000000 12.024086 0.248766
				CHANNELS 3 Zrotation Yrotation Xrotation
				JOINT Spine2
				{
					OFFSET -0.000000 11.503036 -0.491240
					CHANNELS 3 Zrotation Yrotation Xrotation
					JOINT Neck_virtual
					{
						OFFSET 0.000000 0.000000 0.000000
						CHANNELS 3 Zrotation Yrotation Xrotation
						JOINT Neck
						{
							OFFSET 0.000000 18.430687 -3.123054
							CHANNELS 3 Zrotation Yrotation Xrotation
							JOINT Head
							{
								OFFSET -0.000000 9.051071 1.034021
								CHANNELS 3 Zrotation Yrotation Xrotation
								End Site
								{
									OFFSET 0.000000 0.000000 0.000000
								}
							}
						}
					}
					JOINT LeftShoulder_virtual
					{
						OFFSET 0.000000 0.000000 0.000000
						CHANNELS 3 Zrotation Yrotation Xrotation
						JOINT LeftShoulder
						{
							OFFSET 6.197824 13.665230 -4.064723
							CHANNELS 3 Zrotation Yrotation Xrotation
							JOINT LeftArm
							{
								OFFSET 7.778132 -0.187073 -1.709282
								CHANNELS 3 Zrotation Yrotation Xrotation
								JOINT LeftForeArm
								{
									OFFSET 21.954697 0.000000 -2.041093
									CHANNELS 3 Zrotation Yrotation Xrotation
									JOINT LeftHand
									{
										OFFSET 22.992908 0.000000 -0.870901
										CHANNELS 3 Zrotation Yrotation Xrotation
										End Site
										{
											OFFSET 0.000000 0.000000 0.000000
										}
									}
								}
							}
						}
					}
					JOINT RightShoulder_virtual
					{
						OFFSET 0.000000 0.000000 0.000000
						CHANNELS 3 Zrotation Yrotation Xrotation
						JOINT RightShoulder
						{
							OFFSET -6.197824 13.665230 -4.064723
							CHANNELS 3 Zrotation Yrotation Xrotation
							JOINT RightArm
							{
								OFFSET -7.778132 -0.187073 -1.709282
								CHANNELS 3 Zrotation Yrotation Xrotation
								JOINT RightForeArm
								{
									OFFSET -21.954697 0.000000 -2.041093
									CHANNELS 3 Zrotation Yrotation Xrotation
									JOINT RightHand
									{
										OFFSET -22.992908 0.000000 -0.870901
										CHANNELS 3 Zrotation Yrotation Xrotation
										End Site
										{
											OFFSET 0.000000 0.000000 0.000000
										}
									}
								}
							}
						}
					}
				}
			}
		}
	}
}
MOTION
Frames: 8
Frame Time: 0.033333
-6.520774 81.133560 43.230312 -179.965840 5.589779 -179.925815 -4.240091 -1.679920 11.611947 0.689929 1.659735 -22.055627 8.427590 3.272540 27.977797 1.631712 -7.779229 -12.362788 0.000000 0.000000 0.000000 -0.743910 -1.332431 11.084037 -3.656478 -0.897705 -22.113368 -0.795842 3.674641 30.938523 9.465270 5.525647 -11.409501 0.000000 0.000000 0.000000 2.175174 1.078393 0.532430 -4.854513 0.954898 -2.450182 -0.118376 -2.560189 4.743491 -0.009843 0.034394 0.065338 -0.282113 -1.759950 5.450778 -5.295114 4.313014 -8.123187 0.000000 0.000000 0.000000 1.449900 -0.917599 2.767884 -1.010078 5.264304 -6.008076 -0.924619 -13.852261 -50.062770 1.652605 -29.530545 -0.165826 0.000000 0.000000 0.000000 -2.487480 0.204534 2.132427 22.182095 -9.950033 -11.776645 -2.637292 14.244609 -53.570301 2.612595 18.491851 3.666615 0.000000 0.000000 0.000000 
-6.524854 81.112144 43.267014 179.987110 5.689744 -179.863811 -4.160029 -1.867749 11.668499 0.897948 1.176800 -21.963359 8.567792 2.885241 27.961379 1.711631 -7.708053 -12.597814 0.000000 0.000000 0.000000 -0.763636 -1.277511 11.057127 -3.557415 -1.123597 -22.052381 -0.641705 3.563061 31.156311 9.752177 5.826861 -11.470989 0.000000 0.000000 0.000000 2.131465 1.104080 0.433606 -4.830761 0.921698 -2.471224 -0.104108 -2.549315 4.730159 0.040015 0.031255 0.044639 -0.295246 -1.659265 5.562260 -5.185848 4.118558 -8.086594 0.000000 0.000000 0.000000 1.450350 -0.906635 2.822649 -1.058664 5.248468 -5.894875 -0.929341 -13.823247 -50.047651 1.717851 -29.207873 -0.229132 0.000000 0.000000 0.000000 -2.523924 0.332468 2.222353 22.332938 -9.946792 -11.672856 -2.769248 14.091503 -53.811522 2.536277 18.496243 3.657116 0.000000 0.000000 0.000000 
-6.527053 81.101677 43.281750 179.972329 5.747336 -179.899027 -4.201139 -1.825046 11.633295 0.908987 1.156778 -21.950247 8.602365 2.849313 28.039520 1.707747 -7.724095 -12.643607 0.000000 0.000000 0.000000 -0.811692 -1.270652 11.023462 -3.529107 -1.191485 -21.969155 -0.629891 3.601014 31.099303 9.794629 5.876626 -11.520441 0.000000 0.000000 0.000000 2.068816 1.117046 0.322916 -4.782833 0.876729 -2.405700 -0.093631 -2.520524 4.783842 0.021852 0.020991 0.052971 -0.252042 -1.676747 5.625028 -4.984014 4.113124 -8.081464 0.000000 0.000000 0.000000 1.519550 -0.868864 2.811574 -1.233282 5.217702 -6.002873 -0.925552 -13.831776 -49.872511 1.680895 -28.872521 -0.241891 0.000000 0.000000 0.000000 -2.465675 0.349879 2.264289 22.405496 -9.948395 -11.476708 -2.816788 13.822552 -53.957733 2.456590 18.761290 3.678716 0.000000 0.000000 0.000000 
-6.514556 81.102371 43.280949 179.980252 5.869111 -179.882389 -4.247761 -1.800548 11.531986 0.965421 1.106290 -21.899173 8.659578 2.831317 28.111561 1.746196 -7.660055 -12.666036 0.000000 0.000000 0.000000 -0.848529 -1.214732 10.950532 -3.473036 -1.293645 -21.876348 -0.618664 3.653154 31.045494 9.825143 5.930483 -11.509958 0.000000 0.000000 0.000000 2.008542 1.145623 0.232655 -4.674586 0.851976 -2.375259 -0.030825 -2.477096 4.799914 0.039772 0.038913 0.023324 -0.210888 -1.661098 5.683540 -4.544595 3.819025 -7.932113 0.000000 0.000000 0.000000 1.501453 -0.850863 2.859142 -1.448496 5.167633 -5.977577 -1.003609 -13.848577 -49.819000 1.664846 -28.558915 -0.244034 0.000000 0.000000 0.000000 -2.500667 0.412333 2.302717 22.419869 -9.909352 -11.372151 -2.871849 13.517465 -54.009465 2.332517 19.274562 3.698103 0.000000 0.000000 0.000000 
-6.490916 81.093109 43.281734 179.959160 5.992169 -179.934148 -4.310367 -1.756768 11.437836 0.996160 1.029578 -21.791534 8.722716 2.816487 28.233588 1.779027 -7.605126 -12.707453 0.000000 0.000000 0.000000 -0.936077 -1.223933 10.871599 -3.419024 -1.338252 -21.775294 -0.598884 3.679390 31.043551 9.881212 6.010833 -11.490411 0.000000 0.000000 0.000000 1.945614 1.131178 0.178061 -4.580166 0.842995 -2.319632 -0.023857 -2.433027 4.850746 -0.005322 0.042670 0.067184 -0.103034 -1.534079 5.693855 -4.019160 3.528470 -7.790628 0.000000 0.000000 0.000000 1.552173 -0.753320 2.920460 -1.676899 5.236613 -5.920624 -1.115743 -14.009783 -49.880950 1.724124 -28.394054 -0.330458 0.000000 0.000000 0.000000 -2.445816 0.489494 2.327701 22.296429 -9.821117 -11.274441 -2.960051 13.302818 -54.131913 2.242522 19.787773 3.747814 0.000000 0.000000 0.000000 
-6.464549 81.085785 43.303627 179.954625 6.010366 -179.886200 -4.350219 -1.795688 11.296925 1.017326 0.894933 -21.722192 8.783264 2.777002 28.343169 1.790466 -7.564719 -12.703144 0.000000 0.000000 0.000000 -1.013647 -1.255342 10.744653 -3.362728 -1.465667 -21.745111 -0.592432 3.723627 31.085929 9.915174 6.057848 -11.485149 0.000000 0.000000 0.000000 1.897189 1.074776 0.133159 -4.449168 0.850154 -2.332400 0.058781 -2.414563 4.881125 0.026635 0.033495 0.046907 -0.080193 -1.569064 5.771334 -3.474265 3.126613 -7.682426 0.000000 0.000000 0.000000 1.534961 -0.755419 2.959874 -1.983718 5.161426 -5.784998 -1.320516 -13.864727 -49.804165 1.707726 -28.381555 -0.218325 0.000000 0.000000 0.000000 -2.495185 0.492432 2.456510 21.856194 -9.752212 -11.180883 -2.694712 13.250856 -54.119690 2.183995 20.273820 3.852385 0.000000 0.000000 0.000000 
-6.453456 81.081673 43.342510 179.950705 6.104453 -179.926539 -4.357915 -1.738214 11.208681 1.035795 0.745792 -21.658603 8.852551 2.791236 28.404849 1.818983 -7.495619 -12.709149 0.000000 0.000000 0.000000 -1.044341 -1.216068 10.666591 -3.315573 -1.551635 -21.720529 -0.570800 3.730388 31.189765 9.973843 6.107480 -11.441532 0.000000 0.000000 0.000000 1.900287 1.062459 0.179797 -4.381806 0.905787 -2.355829 0.058942 -2.384101 4.920871 0.006196 0.043180 0.060470 0.026822 -1.443898 5.845123 -2.866101 2.890231 -7.410541 0.000000 0.000000 0.000000 1.556192 -0.675728 3.014448 -2.082010 5.167392 -5.814974 -1.616767 -13.793261 -49.816825 1.707349 -28.364845 -0.085474 0.000000 0.000000 0.000000 -2.431693 0.560008 2.496295 21.557906 -9.530122 -10.905590 -2.618697 13.066558 -54.260447 2.152389 20.633621 3.805518 0.000000 0.000000 0.000000 
-6.460462 81.089882 43.383175 179.946279 6.187391 -179.923029 -4.369506 -1.667133 11.149768 1.022710 0.607996 -21.665895 8.915124 2.837743 28.424737 1.827396 -7.442992 -12.655727 0.000000 0.000000 0.000000 -1.058210 -1.149963 10.604053 -3.314354 -1.624571 -21.732574 -0.567319 3.764168 31.251353 10.047983 6.119713 -11.356722 0.000000 0.000000 0.000000 1.914277 1.144539 0.201535 -4.280681 1.056226 -2.408056 0.111414 -2.310829 4.962440 -0.003571 0.105851 0.053994 0.103235 -1.431407 5.957688 -2.333194 2.422992 -7.164321 0.000000 0.000000 0.000000 1.556499 -0.785179 3.127112 -2.128305 4.884723 -5.798290 -2.034898 -13.612488 -49.732783 1.653931 -28.336182 0.209542 0.000000 0.000000 0.000000 -2.402575 0.436907 2.516675 21.199859 -9.417392 -10.338336 -2.322415 12.942017 -54.461067 2.089065 20.927799 3.630580 0.000000 0.000000 0.000000 
